<mxfile host="app.diagrams.net" modified="2023-11-20T13:03:42.551Z" agent="Mozilla/5.0 (Windows NT 10.0; Win64; x64) AppleWebKit/537.36 (KHTML, like Gecko) Chrome/119.0.0.0 Safari/537.36" etag="l720XecsA1ntoxVbYEdC" version="22.1.3" type="github">
  <diagram name="Page-1" id="8ce9d11a-91a2-4d17-14d8-a56ed91bf033">
    <mxGraphModel dx="925" dy="505" grid="1" gridSize="10" guides="1" tooltips="1" connect="1" arrows="1" fold="1" page="1" pageScale="1" pageWidth="1100" pageHeight="850" background="none" math="0" shadow="0">
      <root>
        <mxCell id="0" />
        <mxCell id="1" parent="0" />
        <mxCell id="kL4u_uZfzWh60jdp4ADe-1" value="USERS" style="rounded=1;whiteSpace=wrap;html=1;" vertex="1" parent="1">
          <mxGeometry x="400" y="100" width="200" height="70" as="geometry" />
        </mxCell>
        <mxCell id="kL4u_uZfzWh60jdp4ADe-2" value="GOODS" style="rounded=1;whiteSpace=wrap;html=1;" vertex="1" parent="1">
          <mxGeometry x="240" y="210" width="120" height="60" as="geometry" />
        </mxCell>
        <mxCell id="kL4u_uZfzWh60jdp4ADe-3" value="SUPPLIER" style="rounded=1;whiteSpace=wrap;html=1;" vertex="1" parent="1">
          <mxGeometry x="90" y="210" width="120" height="60" as="geometry" />
        </mxCell>
        <mxCell id="kL4u_uZfzWh60jdp4ADe-4" value="order" style="rhombus;whiteSpace=wrap;html=1;" vertex="1" parent="1">
          <mxGeometry x="460" y="200" width="80" height="80" as="geometry" />
        </mxCell>
        <mxCell id="kL4u_uZfzWh60jdp4ADe-5" value="have" style="rhombus;whiteSpace=wrap;html=1;" vertex="1" parent="1">
          <mxGeometry x="660" y="95" width="80" height="80" as="geometry" />
        </mxCell>
        <mxCell id="kL4u_uZfzWh60jdp4ADe-6" value="TYPE" style="rounded=1;whiteSpace=wrap;html=1;" vertex="1" parent="1">
          <mxGeometry x="170" y="330" width="120" height="60" as="geometry" />
        </mxCell>
        <mxCell id="kL4u_uZfzWh60jdp4ADe-7" value="MENU" style="rounded=1;whiteSpace=wrap;html=1;" vertex="1" parent="1">
          <mxGeometry x="350" y="330" width="120" height="60" as="geometry" />
        </mxCell>
        <mxCell id="kL4u_uZfzWh60jdp4ADe-8" value="BILL" style="rounded=1;whiteSpace=wrap;html=1;" vertex="1" parent="1">
          <mxGeometry x="640" y="210" width="120" height="60" as="geometry" />
        </mxCell>
        <mxCell id="kL4u_uZfzWh60jdp4ADe-9" value="import" style="rhombus;whiteSpace=wrap;html=1;" vertex="1" parent="1">
          <mxGeometry x="260" y="95" width="80" height="80" as="geometry" />
        </mxCell>
        <mxCell id="kL4u_uZfzWh60jdp4ADe-10" value="TABLE" style="rounded=1;whiteSpace=wrap;html=1;" vertex="1" parent="1">
          <mxGeometry x="520" y="330" width="120" height="60" as="geometry" />
        </mxCell>
        <mxCell id="kL4u_uZfzWh60jdp4ADe-11" value="WAGE" style="rounded=1;whiteSpace=wrap;html=1;" vertex="1" parent="1">
          <mxGeometry x="780" y="105" width="120" height="60" as="geometry" />
        </mxCell>
        <mxCell id="kL4u_uZfzWh60jdp4ADe-12" value="GOODS-IMP" style="rounded=1;whiteSpace=wrap;html=1;" vertex="1" parent="1">
          <mxGeometry x="100" y="105" width="120" height="60" as="geometry" />
        </mxCell>
        <mxCell id="kL4u_uZfzWh60jdp4ADe-13" value="GOODS-DETA" style="rounded=1;whiteSpace=wrap;html=1;" vertex="1" parent="1">
          <mxGeometry x="1040" y="115" width="120" height="60" as="geometry" />
        </mxCell>
        <mxCell id="kL4u_uZfzWh60jdp4ADe-15" value="" style="endArrow=classic;html=1;rounded=0;entryX=1;entryY=0.5;entryDx=0;entryDy=0;exitX=0;exitY=0.5;exitDx=0;exitDy=0;" edge="1" parent="1" source="kL4u_uZfzWh60jdp4ADe-1" target="kL4u_uZfzWh60jdp4ADe-9">
          <mxGeometry width="50" height="50" relative="1" as="geometry">
            <mxPoint x="500" y="360" as="sourcePoint" />
            <mxPoint x="550" y="310" as="targetPoint" />
          </mxGeometry>
        </mxCell>
        <mxCell id="kL4u_uZfzWh60jdp4ADe-16" value="" style="endArrow=classic;html=1;rounded=0;entryX=0.5;entryY=0;entryDx=0;entryDy=0;exitX=0;exitY=1;exitDx=0;exitDy=0;" edge="1" parent="1" source="kL4u_uZfzWh60jdp4ADe-4" target="kL4u_uZfzWh60jdp4ADe-7">
          <mxGeometry width="50" height="50" relative="1" as="geometry">
            <mxPoint x="420" y="310" as="sourcePoint" />
            <mxPoint x="470" y="260" as="targetPoint" />
          </mxGeometry>
        </mxCell>
        <mxCell id="kL4u_uZfzWh60jdp4ADe-17" value="" style="endArrow=classic;html=1;rounded=0;exitX=1;exitY=0.5;exitDx=0;exitDy=0;entryX=0;entryY=0.5;entryDx=0;entryDy=0;" edge="1" parent="1" source="kL4u_uZfzWh60jdp4ADe-4" target="kL4u_uZfzWh60jdp4ADe-8">
          <mxGeometry width="50" height="50" relative="1" as="geometry">
            <mxPoint x="540" y="250" as="sourcePoint" />
            <mxPoint x="590" y="200" as="targetPoint" />
          </mxGeometry>
        </mxCell>
        <mxCell id="kL4u_uZfzWh60jdp4ADe-18" value="" style="endArrow=classic;html=1;rounded=0;exitX=1;exitY=0.5;exitDx=0;exitDy=0;entryX=0;entryY=0.5;entryDx=0;entryDy=0;" edge="1" parent="1" source="kL4u_uZfzWh60jdp4ADe-5" target="kL4u_uZfzWh60jdp4ADe-11">
          <mxGeometry width="50" height="50" relative="1" as="geometry">
            <mxPoint x="730" y="160" as="sourcePoint" />
            <mxPoint x="780" y="110" as="targetPoint" />
          </mxGeometry>
        </mxCell>
        <mxCell id="kL4u_uZfzWh60jdp4ADe-19" value="" style="endArrow=classic;html=1;rounded=0;exitX=1;exitY=0.5;exitDx=0;exitDy=0;entryX=0;entryY=0.5;entryDx=0;entryDy=0;" edge="1" parent="1" source="kL4u_uZfzWh60jdp4ADe-1" target="kL4u_uZfzWh60jdp4ADe-5">
          <mxGeometry width="50" height="50" relative="1" as="geometry">
            <mxPoint x="600" y="160" as="sourcePoint" />
            <mxPoint x="650" y="110" as="targetPoint" />
          </mxGeometry>
        </mxCell>
        <mxCell id="kL4u_uZfzWh60jdp4ADe-20" value="" style="endArrow=classic;html=1;rounded=0;exitX=0.5;exitY=1;exitDx=0;exitDy=0;entryX=0.5;entryY=0;entryDx=0;entryDy=0;" edge="1" parent="1" source="kL4u_uZfzWh60jdp4ADe-1" target="kL4u_uZfzWh60jdp4ADe-4">
          <mxGeometry width="50" height="50" relative="1" as="geometry">
            <mxPoint x="450" y="230" as="sourcePoint" />
            <mxPoint x="500" y="180" as="targetPoint" />
          </mxGeometry>
        </mxCell>
        <mxCell id="kL4u_uZfzWh60jdp4ADe-21" value="" style="endArrow=classic;html=1;rounded=0;exitX=0;exitY=0.5;exitDx=0;exitDy=0;entryX=1;entryY=0.5;entryDx=0;entryDy=0;" edge="1" parent="1" source="kL4u_uZfzWh60jdp4ADe-9" target="kL4u_uZfzWh60jdp4ADe-12">
          <mxGeometry width="50" height="50" relative="1" as="geometry">
            <mxPoint x="230" y="170" as="sourcePoint" />
            <mxPoint x="250" y="105" as="targetPoint" />
          </mxGeometry>
        </mxCell>
        <mxCell id="kL4u_uZfzWh60jdp4ADe-22" value="" style="endArrow=classic;html=1;rounded=0;exitX=0;exitY=0.5;exitDx=0;exitDy=0;entryX=1;entryY=0.5;entryDx=0;entryDy=0;" edge="1" parent="1" source="kL4u_uZfzWh60jdp4ADe-2" target="kL4u_uZfzWh60jdp4ADe-3">
          <mxGeometry width="50" height="50" relative="1" as="geometry">
            <mxPoint x="160" y="215" as="sourcePoint" />
            <mxPoint x="210" y="165" as="targetPoint" />
          </mxGeometry>
        </mxCell>
        <mxCell id="kL4u_uZfzWh60jdp4ADe-23" value="" style="endArrow=classic;html=1;rounded=0;exitX=0.5;exitY=1;exitDx=0;exitDy=0;entryX=0.5;entryY=0;entryDx=0;entryDy=0;" edge="1" parent="1" source="kL4u_uZfzWh60jdp4ADe-9" target="kL4u_uZfzWh60jdp4ADe-2">
          <mxGeometry width="50" height="50" relative="1" as="geometry">
            <mxPoint x="310" y="180" as="sourcePoint" />
            <mxPoint x="360" y="130" as="targetPoint" />
          </mxGeometry>
        </mxCell>
        <mxCell id="kL4u_uZfzWh60jdp4ADe-24" value="" style="endArrow=classic;html=1;rounded=0;exitX=1;exitY=1;exitDx=0;exitDy=0;entryX=0.5;entryY=0;entryDx=0;entryDy=0;" edge="1" parent="1" source="kL4u_uZfzWh60jdp4ADe-4" target="kL4u_uZfzWh60jdp4ADe-10">
          <mxGeometry width="50" height="50" relative="1" as="geometry">
            <mxPoint x="540" y="310" as="sourcePoint" />
            <mxPoint x="590" y="260" as="targetPoint" />
          </mxGeometry>
        </mxCell>
        <mxCell id="kL4u_uZfzWh60jdp4ADe-25" value="" style="endArrow=classic;html=1;rounded=0;exitX=0;exitY=0.5;exitDx=0;exitDy=0;entryX=1;entryY=0.5;entryDx=0;entryDy=0;" edge="1" parent="1" source="kL4u_uZfzWh60jdp4ADe-7" target="kL4u_uZfzWh60jdp4ADe-6">
          <mxGeometry width="50" height="50" relative="1" as="geometry">
            <mxPoint x="500" y="360" as="sourcePoint" />
            <mxPoint x="550" y="310" as="targetPoint" />
          </mxGeometry>
        </mxCell>
      </root>
    </mxGraphModel>
  </diagram>
</mxfile>
